Coordinates
version=1
nRows=13
nColumns=40
inDegrees=yes

Units are S.I. units (second, meters, Newtons, ...)
If the header above contains a line with 'inDegrees', this indicates whether rotational values are in degrees (yes) or radians (no).

endheader
time	pelvis_tilt	pelvis_list	pelvis_rotation	pelvis_tx	pelvis_ty	pelvis_tz	hip_flexion_r	hip_adduction_r	hip_rotation_r	knee_angle_r	knee_angle_r_beta	ankle_angle_r	subtalar_angle_r	mtp_angle_r	hip_flexion_l	hip_adduction_l	hip_rotation_l	knee_angle_l	knee_angle_l_beta	ankle_angle_l	subtalar_angle_l	mtp_angle_l	lumbar_extension	lumbar_bending	lumbar_rotation	arm_flex_r	arm_add_r	arm_rot_r	elbow_flex_r	pro_sup_r	wrist_flex_r	wrist_dev_r	arm_flex_l	arm_add_l	arm_rot_l	elbow_flex_l	pro_sup_l	wrist_flex_l	wrist_dev_l
      6.92500000	    -15.88089844	     -3.63185643	     -3.24559997	     -0.40680330	      0.81676223	     -0.78329019	     63.78474681	      3.61658740	    -11.23108943	     83.15886286	      1.45139596	     26.15121867	      0.00000000	      0.00000000	     34.01553534	    -22.83637769	     -7.03205450	    107.56556324	      1.87737324	    -34.06093834	      0.00000000	      0.00000000	     -7.28675088	     11.11074826	     13.96724973	     89.96427408	    -19.86294872	     14.66846617	     47.47903044	     79.53720177	      0.00000000	      0.00000000	     89.96177700	     -4.38085972	     15.01642435	     45.75232108	     82.61378771	      0.00000000	      0.00000000
      6.93000000	    -15.84620772	     -3.59987489	     -3.36011050	     -0.40691076	      0.81666552	     -0.78333353	     63.78121688	      3.68918347	    -11.13605891	     83.18667911	      1.45188144	     26.19530721	      0.00000000	      0.00000000	     33.97298050	    -22.85315291	     -6.97598719	    107.65100656	      1.87886451	    -33.88116396	      0.00000000	      0.00000000	     -7.32633037	     11.09133228	     14.03432007	     89.96434888	    -19.82753725	     15.16609187	     47.52591653	     75.42379696	      0.00000000	      0.00000000	     89.96191593	     -4.41063788	     15.60201430	     45.76699361	     77.97554248	      0.00000000	      0.00000000
      6.93500000	    -15.86272599	     -3.62232187	     -3.41269790	     -0.40714733	      0.81669269	     -0.78341300	     63.80213164	      3.72522115	    -11.15730697	     83.15998881	      1.45141561	     26.11528947	      0.00000000	      0.00000000	     34.08151195	    -22.91674932	     -6.83945906	    107.74866791	      1.88056902	    -34.15531868	      0.00000000	      0.00000000	     -7.33358021	     11.11336519	     14.07262011	     89.96434309	    -19.84973331	     14.69137038	     47.45192015	     79.57846125	      0.00000000	      0.00000000	     89.96175559	     -4.36398063	     14.98585056	     45.71145458	     82.63165457	      0.00000000	      0.00000000
      6.94000000	    -15.85810369	     -3.58215240	     -3.48378203	     -0.40735504	      0.81668693	     -0.78354226	     63.81559287	      3.73830899	    -11.11079355	     83.16144228	      1.45144098	     26.16838154	      0.00000000	      0.00000000	     34.11540137	    -22.90464774	     -6.78504805	    107.83187035	      1.88202118	    -34.23982148	      0.00000000	      0.00000000	     -7.35928324	     11.07918068	     14.11146099	     89.96436986	    -19.86418273	     15.21829749	     47.58491513	     74.92401599	      0.00000000	      0.00000000	     89.96172385	     -4.38229538	     15.57852608	     45.81847385	     77.36805366	      0.00000000	      0.00000000
      6.94500000	    -15.85269454	     -3.61157763	     -3.51304693	     -0.40753867	      0.81668720	     -0.78368576	     63.81666439	      3.74756071	    -11.14343747	     83.15090217	      1.45125702	     26.12745522	      0.00000000	      0.00000000	     34.19340804	    -22.92779764	     -6.60445408	    107.88652823	      1.88297514	    -34.39140172	      0.00000000	      0.00000000	     -7.37819303	     11.13291810	     14.12788779	     89.96440907	    -19.86424776	     15.56696134	     47.68185414	     71.63364806	      0.00000000	      0.00000000	     89.96172323	     -4.35599859	     15.86175104	     45.88304024	     73.73340298	      0.00000000	      0.00000000
      6.95000000	    -15.85242756	     -3.62983869	     -3.56453096	     -0.40772956	      0.81671399	     -0.78374685	     63.82114700	      3.79157285	    -11.14630443	     83.12916819	      1.45087769	     26.13239090	      0.00000000	      0.00000000	     34.25170220	    -22.97350211	     -6.46213474	    107.96622581	      1.88436612	    -34.41296495	      0.00000000	      0.00000000	     -7.38304326	     11.14854524	     14.14929209	     89.96440764	    -19.87510303	     15.85826614	     47.77349815	     68.65129773	      0.00000000	      0.00000000	     89.96165955	     -4.35045575	     16.13637312	     45.94324262	     70.66100249	      0.00000000	      0.00000000
      6.95500000	    -15.87879381	     -3.60337185	     -3.59878468	     -0.40791630	      0.81671605	     -0.78389372	     63.86618037	      3.78108439	    -11.11540015	     83.12265187	      1.45076396	     26.00822076	      0.00000000	      0.00000000	     34.34613638	    -22.94090088	     -6.36239818	    108.07276207	      1.88622553	    -34.38868925	      0.00000000	      0.00000000	     -7.35585686	     11.15108755	     14.13972799	     89.96453406	    -19.82033665	     14.72761658	     47.49852409	     78.99999510	      0.00000000	      0.00000000	     89.96169542	     -4.35950003	     14.83552924	     45.64472592	     82.75424537	      0.00000000	      0.00000000
      6.96000000	    -15.90172941	     -3.64473441	     -3.65657548	     -0.40812522	      0.81673707	     -0.78397048	     63.89430690	      3.82810956	    -11.14608268	     83.09759987	      1.45032672	     25.95903586	      0.00000000	      0.00000000	     34.44560426	    -23.00718263	     -6.20846357	    108.17109899	      1.88794183	    -34.51185836	      0.00000000	      0.00000000	     -7.34126919	     11.20579900	     14.19220418	     89.96453692	    -19.85261112	     14.82303026	     47.52761399	     78.23035334	      0.00000000	      0.00000000	     89.96169289	     -4.31105757	     14.85167669	     45.61798641	     81.63255355	      0.00000000	      0.00000000
      6.96500000	    -15.88412938	     -3.58628751	     -3.74352024	     -0.40824585	      0.81669065	     -0.78409182	     63.90086789	      3.85039197	    -11.05226825	     83.11403100	      1.45061350	     25.96950466	      0.00000000	      0.00000000	     34.44376528	    -22.98335157	     -6.19550613	    108.25059516	      1.88932930	    -34.51810877	      0.00000000	      0.00000000	     -7.36692396	     11.15961592	     14.22851319	     89.96460021	    -19.81564814	     14.69815049	     47.51156505	     79.29801683	      0.00000000	      0.00000000	     89.96172045	     -4.36475674	     14.77384674	     45.62995193	     82.64497287	      0.00000000	      0.00000000
      6.97000000	    -15.81597115	     -3.58525657	     -3.82052969	     -0.40850792	      0.81687111	     -0.78419169	     63.82393840	      3.89382650	    -11.03454000	     83.07454341	      1.44992431	     26.05827421	      0.00000000	      0.00000000	     34.42038393	    -23.01509890	     -6.12778825	    108.33643749	      1.89082753	    -34.57801382	      0.00000000	      0.00000000	     -7.48064181	     11.15072372	     14.35062297	     89.96458069	    -19.93593562	     15.97975467	     47.96874585	     67.20640348	      0.00000000	      0.00000000	     89.96168110	     -4.29399719	     16.03903131	     46.00614587	     69.10977689	      0.00000000	      0.00000000
      6.97500000	    -15.91803740	     -3.55015861	     -3.88832825	     -0.40863438	      0.81673616	     -0.78432925	     63.95764785	      3.89513625	    -11.00244457	     83.08368119	      1.45008379	     25.89678666	      0.00000000	      0.00000000	     34.56137672	    -23.00013043	     -6.03823102	    108.43491205	      1.89254624	    -34.54839897	      0.00000000	      0.00000000	     -7.35308743	     11.15335561	     14.31720677	     89.96468387	    -19.80052986	     14.71187604	     47.55400344	     79.01647739	      0.00000000	      0.00000000	     89.96168811	     -4.37358094	     14.71015583	     45.61876459	     82.59908176	      0.00000000	      0.00000000
      6.98000000	    -15.92427490	     -3.55545338	     -3.95998710	     -0.40881389	      0.81685282	     -0.78444055	     63.95133840	      3.92832403	    -11.00106683	     83.03460096	      1.44922718	     25.92034958	      0.00000000	      0.00000000	     34.60993128	    -23.01938339	     -5.94859750	    108.50057860	      1.89369234	    -34.57769926	      0.00000000	      0.00000000	     -7.36803418	     11.16562545	     14.36117094	     89.96468593	    -19.78634641	     15.16734814	     47.68135510	     74.69500533	      0.00000000	      0.00000000	     89.96160378	     -4.37510981	     15.25104784	     45.74175432	     77.62107681	      0.00000000	      0.00000000
      6.98500000	    -15.88789138	     -3.53746425	     -4.00130429	     -0.40903391	      0.81697953	     -0.78460577	     63.91343576	      3.91224011	    -11.00004291	     83.01421865	      1.44887144	     25.91611582	      0.00000000	      0.00000000	     34.63446882	    -23.01046361	     -5.87032489	    108.55744347	      1.89468482	    -34.76819738	      0.00000000	      0.00000000	     -7.41536224	     11.16906947	     14.37717394	     89.96467289	    -19.76457535	     15.54472917	     47.84309853	     70.41557150	      0.00000000	      0.00000000	     89.96166109	     -4.40059448	     15.65480051	     45.87287872	     72.93878176	      0.00000000	      0.00000000
